<svg width="20" height="20" viewBox="0 0 20 20" fill="none" xmlns="http://www.w3.org/2000/svg">
<path d="M9.08331 12.75H10.9166V14.5834H9.08331V12.75ZM9.08331 5.41671H10.9166V10.9167H9.08331V5.41671ZM9.99081 0.833374C4.93081 0.833374 0.833313 4.94004 0.833313 10C0.833313 15.06 4.93081 19.1667 9.99081 19.1667C15.06 19.1667 19.1666 15.06 19.1666 10C19.1666 4.94004 15.06 0.833374 9.99081 0.833374ZM9.99998 17.3334C5.94831 17.3334 2.66665 14.0517 2.66665 10C2.66665 5.94837 5.94831 2.66671 9.99998 2.66671C14.0516 2.66671 17.3333 5.94837 17.3333 10C17.3333 14.0517 14.0516 17.3334 9.99998 17.3334Z" fill="#E31B0C"/>
</svg>
