<svg width="20" height="20" viewBox="0 0 20 20" fill="none" xmlns="http://www.w3.org/2000/svg">
<path d="M9.99998 0.833252C4.93998 0.833252 0.833313 4.93992 0.833313 9.99992C0.833313 15.0599 4.93998 19.1666 9.99998 19.1666C15.06 19.1666 19.1666 15.0599 19.1666 9.99992C19.1666 4.93992 15.06 0.833252 9.99998 0.833252ZM9.99998 17.3333C5.95748 17.3333 2.66665 14.0424 2.66665 9.99992C2.66665 5.95742 5.95748 2.66659 9.99998 2.66659C14.0425 2.66659 17.3333 5.95742 17.3333 9.99992C17.3333 14.0424 14.0425 17.3333 9.99998 17.3333ZM14.2075 5.94825L8.16665 11.9891L5.79248 9.62409L4.49998 10.9166L8.16665 14.5833L15.5 7.24992L14.2075 5.94825Z" fill="#00A75B"/>
</svg>
